<?xml version="1.0" encoding="UTF-8"?><svg xmlns="http://www.w3.org/2000/svg" xmlns:xlink="http://www.w3.org/1999/xlink" viewBox="0 0 1084.28 249.89"><defs><style>.cls-1{fill:#fff;}.cls-2{clip-path:url(#clippath-2);}.cls-3{clip-path:url(#clippath-6);}.cls-4{fill:#311afc;}.cls-5{clip-path:url(#clippath-7);}.cls-6{clip-path:url(#clippath-1);}.cls-7{clip-path:url(#clippath-4);}.cls-8{fill:#0f8128;}.cls-9{fill:#5f9a42;}.cls-10{clip-path:url(#clippath-9);}.cls-11{clip-path:url(#clippath);}.cls-12{fill:#afafaf;}.cls-13{fill:none;}.cls-14{clip-path:url(#clippath-3);}.cls-15{clip-path:url(#clippath-8);}.cls-16{clip-path:url(#clippath-5);}.cls-17{clip-path:url(#clippath-10);}</style><clipPath id="clippath"><rect class="cls-13" x="11.73" y="9.8" width="780.61" height="232.7"/></clipPath><clipPath id="clippath-1"><rect class="cls-13" x="11.73" y="9.8" width="780.61" height="232.7"/></clipPath><clipPath id="clippath-2"><rect class="cls-13" x="11.73" y="9.8" width="780.61" height="232.7"/></clipPath><clipPath id="clippath-3"><rect class="cls-13" x="11.73" y="9.8" width="780.61" height="232.7"/></clipPath><clipPath id="clippath-4"><rect class="cls-13" x="11.73" y="9.8" width="780.61" height="232.7"/></clipPath><clipPath id="clippath-5"><rect class="cls-13" x="11.73" y="9.8" width="780.61" height="232.7"/></clipPath><clipPath id="clippath-6"><rect class="cls-13" x="11.73" y="9.8" width="780.61" height="232.7"/></clipPath><clipPath id="clippath-7"><rect class="cls-13" x="11.73" y="9.8" width="780.61" height="232.7"/></clipPath><clipPath id="clippath-8"><rect class="cls-13" x="11.73" y="9.8" width="780.61" height="232.7"/></clipPath><clipPath id="clippath-9"><rect class="cls-13" x="11.73" y="9.8" width="780.61" height="232.7"/></clipPath><clipPath id="clippath-10"><rect class="cls-13" x="11.73" y="9.8" width="780.61" height="232.7"/></clipPath></defs><g id="Layer_3"><rect class="cls-1" x="841.14" y="10.02" width="231.41" height="231.41"/><rect x="846.19" y="15.07" width="221.31" height="221.31"/><rect class="cls-1" x="850.74" y="19.62" width="212.21" height="212.21"/><g id="Layer_4"><rect class="cls-12" x="876.01" y="53.22" width="1.52" height="178.49"/><rect class="cls-12" x="907.86" y="53.22" width="1.52" height="178.49"/><rect class="cls-12" x="939.86" y="53.22" width="1.52" height="178.49"/><rect class="cls-12" x="971.86" y="53.22" width="1.52" height="178.49"/><rect class="cls-12" x="1003.86" y="53.22" width="1.52" height="178.49"/><rect class="cls-12" x="1035.86" y="53.22" width="1.52" height="178.49"/><rect class="cls-12" x="955.96" y="93.89" width="1.52" height="212.46" transform="translate(756.59 1156.84) rotate(-90)"/><rect class="cls-12" x="955.96" y="55.89" width="1.52" height="212.46" transform="translate(794.59 1118.84) rotate(-90)"/><rect class="cls-12" x="955.96" y="19.89" width="1.52" height="212.46" transform="translate(830.59 1082.84) rotate(-90)"/><rect class="cls-12" x="955.96" y="-17.11" width="1.52" height="212.46" transform="translate(867.59 1045.84) rotate(-90)"/></g><path class="cls-8" d="M999.2,85.66c-10.29,0-20.58,0-30.87,0-19.82,.02-39.64-.01-59.46,.17-2.34,.02-4.9,.79-6.96,1.93-11.35,6.27-22.58,12.77-33.86,19.18-.69,.39-1.45,.66-2.65,1.2V59.68h183.35c0,8.34,.34,16.46-.26,24.51-.13,1.79-3.38,3.68-5.53,4.93-17.84,10.35-35.79,20.52-53.67,30.81-39.64,22.81-79.27,45.67-118.9,68.49-1.41,.81-2.88,1.51-5.28,2.76,0-9.75-.17-18.81,.19-27.84,.05-1.31,2.5-2.81,4.13-3.72,32.65-18.28,65.35-36.48,98.02-54.72,10.7-5.97,21.37-12.02,32.05-18.03-.1-.4-.21-.81-.31-1.21Z"/><path class="cls-4" d="M913.22,199.01c10.31,0,20.62,.01,30.94,0,20-.03,40,0,59.99-.19,2.51-.02,5.27-.81,7.48-2.04,12.07-6.71,24-13.67,36.63-20.91v48.45h-183.02c0-8.09-.19-16.19,.18-24.26,.06-1.37,2.34-2.97,3.93-3.9,32.41-19.09,64.88-38.1,97.33-57.12,25.56-14.99,51.12-29.98,76.68-44.96,1.52-.89,3.11-1.68,5.34-2.88,0,9.42,.19,18.04-.18,26.63-.07,1.56-2.18,3.5-3.82,4.44-21.21,12.2-42.51,24.26-63.79,36.34-21.42,12.17-42.85,24.32-64.25,36.51-1.41,.8-2.67,1.85-4,2.79,.19,.36,.38,.72,.57,1.09Z"/><rect class="cls-4" x="850.74" y="19.36" width="212.46" height="33.85"/><path class="cls-1" d="M922.8,24.04h6.25v17.24h9.85v5.31h-16.11s.38-22.93,0-22.55Z"/><path class="cls-1" d="M1009.01,23.85v22.36h6.06v-15.16l8.15,15.73h6.63V23.85h-5.87v12.78l-6.39-12.78s-8.39-.19-8.58,0Z"/><path class="cls-1" d="M977.37,23.85h-8.53l-7.2,22.36h6.44l1.89-5.12h6.44l1.71,5.12h6.44l-7.2-22.36Zm-6.51,12.25l1.45-7.45h1.2l1.71,7.45h-4.36Z"/><path class="cls-1" d="M891.63,23.85s-11.08-.19-11.27,0v21.98h6.06v-6.82h4.74s7.48,0,7.48-7.48-7.01-7.67-7.01-7.67Zm-1.56,10.52l-3.84,.05v-6.11h3.69s2.84,.31,2.84,2.98-2.7,3.08-2.7,3.08Z"/></g><g id="Layer_5"><g id="Octocon_Logo"><g class="cls-11"><path class="cls-9" d="M792.34,222.75c0,10.91-7.74,19.76-17.3,19.76H29.02c-9.55,0-17.29-8.85-17.29-19.76V29.55c0-10.92,7.74-19.75,17.29-19.75H775.04c9.56,0,17.3,8.84,17.3,19.75V222.75Z"/></g><polygon class="cls-1" points="66.87 207.74 66.87 195.14 62.37 195.14 62.37 192.58 74.42 192.58 74.42 195.14 69.94 195.14 69.94 207.74 66.87 207.74"/><polygon class="cls-1" points="79.76 207.74 79.76 192.58 82.83 192.58 82.83 198.55 88.83 198.55 88.83 192.58 91.89 192.58 91.89 207.74 88.83 207.74 88.83 201.11 82.83 201.11 82.83 207.74 79.76 207.74"/><polygon class="cls-1" points="97.04 207.74 97.04 192.58 108.28 192.58 108.28 195.14 100.1 195.14 100.1 198.5 107.71 198.5 107.71 201.06 100.1 201.06 100.1 205.19 108.57 205.19 108.57 207.74 97.04 207.74"/><polygon class="cls-1" points="122.03 207.74 122.03 192.58 125.01 192.58 131.21 202.7 131.21 192.58 134.06 192.58 134.06 207.74 130.98 207.74 124.87 197.85 124.87 207.74 122.03 207.74"/><path class="cls-1" d="M149.23,201.74l-2.09-5.63-2.05,5.63h4.14Zm5.64,6h-3.33s-1.32-3.44-1.32-3.44h-6.06s-1.25,3.44-1.25,3.44h-3.25s5.91-15.16,5.91-15.16h3.24s6.07,15.16,6.07,15.16Z"/><polygon class="cls-1" points="161.76 207.74 161.76 195.14 157.26 195.14 157.26 192.58 169.31 192.58 169.31 195.14 164.82 195.14 164.82 207.74 161.76 207.74"/><rect class="cls-1" x="173.08" y="192.58" width="3.06" height="15.16"/><g class="cls-6"><path class="cls-1" d="M184.65,200.15c0,1.71,.39,3.02,1.19,3.9,.79,.89,1.8,1.33,3.02,1.33s2.22-.44,3.01-1.32c.78-.88,1.18-2.2,1.18-3.95s-.38-3.04-1.14-3.89c-.76-.86-1.77-1.28-3.04-1.28s-2.28,.43-3.05,1.3c-.77,.87-1.16,2.17-1.16,3.92m-3.16,.1c0-1.55,.23-2.84,.69-3.89,.35-.77,.82-1.46,1.41-2.08,.6-.61,1.25-1.07,1.96-1.37,.95-.39,2.03-.6,3.27-.6,2.23,0,4.02,.69,5.36,2.08,1.34,1.39,2.01,3.32,2.01,5.78,0,2.45-.66,4.36-2,5.75-1.33,1.38-3.11,2.07-5.34,2.07-2.25,0-4.05-.69-5.38-2.07-1.33-1.38-2-3.27-2-5.68"/></g><polygon class="cls-1" points="202.44 207.74 202.44 192.58 205.42 192.58 211.63 202.7 211.63 192.58 214.47 192.58 214.47 207.74 211.4 207.74 205.28 197.85 205.28 207.74 202.44 207.74"/><path class="cls-1" d="M229.65,201.74l-2.09-5.63-2.05,5.63h4.14Zm5.64,6h-3.33s-1.32-3.44-1.32-3.44h-6.06s-1.25,3.44-1.25,3.44h-3.25s5.91-15.16,5.91-15.16h3.24s6.07,15.16,6.07,15.16Z"/><polygon class="cls-1" points="240.79 207.74 240.79 192.7 243.86 192.7 243.86 205.19 251.47 205.19 251.47 207.74 240.79 207.74"/><rect class="cls-1" x="263.6" y="192.58" width="3.06" height="15.16"/><g class="cls-2"><path class="cls-1" d="M275.71,198.99h2.26c1.47,0,2.39-.06,2.75-.19,.37-.12,.65-.34,.86-.64,.21-.3,.31-.68,.31-1.14,0-.51-.14-.92-.41-1.24-.27-.31-.66-.51-1.15-.59-.25-.03-.99-.05-2.23-.05h-2.39v3.85Zm-3.06,8.75v-15.16s6.44,0,6.44,0c1.62,0,2.8,.14,3.53,.41,.73,.27,1.32,.76,1.77,1.45,.44,.7,.66,1.49,.66,2.39,0,1.14-.34,2.08-1,2.82-.67,.74-1.67,1.21-3,1.4,.66,.39,1.21,.81,1.64,1.27,.43,.46,1.01,1.28,1.74,2.46l1.85,2.96h-3.66s-2.22-3.3-2.22-3.3c-.79-1.18-1.32-1.92-1.61-2.23-.29-.31-.6-.52-.92-.63-.32-.11-.84-.17-1.54-.17h-.62v6.33h-3.06Z"/></g><rect class="cls-1" x="289.67" y="192.58" width="3.06" height="15.16"/><g class="cls-14"><path class="cls-1" d="M297.2,202.81l2.98-.29c.18,1,.54,1.74,1.09,2.2,.55,.47,1.29,.7,2.22,.7,.98,0,1.73-.21,2.23-.62,.5-.42,.75-.9,.75-1.46,0-.36-.11-.66-.32-.92-.21-.25-.58-.47-1.1-.66-.36-.12-1.18-.34-2.45-.66-1.64-.41-2.79-.91-3.46-1.5-.93-.83-1.4-1.85-1.4-3.05,0-.77,.22-1.49,.66-2.16,.44-.67,1.07-1.18,1.89-1.54,.82-.35,1.82-.53,2.98-.53,1.9,0,3.34,.42,4.3,1.25,.96,.83,1.47,1.95,1.52,3.34l-3.06,.14c-.13-.78-.41-1.34-.84-1.68-.43-.34-1.07-.51-1.94-.51s-1.59,.18-2.09,.55c-.32,.24-.49,.55-.49,.94,0,.36,.15,.67,.45,.92,.39,.32,1.32,.66,2.81,1.01,1.49,.35,2.59,.71,3.31,1.09,.72,.38,1.27,.89,1.68,1.54,.4,.65,.6,1.46,.6,2.42,0,.87-.24,1.68-.72,2.44-.48,.76-1.16,1.32-2.05,1.69-.88,.37-1.98,.55-3.3,.55-1.92,0-3.39-.45-4.41-1.33-1.03-.88-1.65-2.18-1.84-3.87"/></g><polygon class="cls-1" points="312.81 207.74 312.81 192.58 315.87 192.58 315.87 198.55 321.87 198.55 321.87 192.58 324.94 192.58 324.94 207.74 321.87 207.74 321.87 201.11 315.87 201.11 315.87 207.74 312.81 207.74"/><g class="cls-7"><path class="cls-1" d="M339.71,202.81l2.98-.29c.18,1,.54,1.74,1.09,2.2,.55,.47,1.29,.7,2.22,.7,.98,0,1.73-.21,2.23-.62,.5-.42,.75-.9,.75-1.46,0-.36-.11-.66-.32-.92-.21-.25-.58-.47-1.1-.66-.36-.12-1.18-.34-2.45-.66-1.64-.41-2.79-.91-3.46-1.5-.93-.83-1.4-1.85-1.4-3.05,0-.77,.22-1.49,.66-2.16,.44-.67,1.07-1.18,1.89-1.54,.82-.35,1.82-.53,2.98-.53,1.9,0,3.34,.42,4.3,1.25,.96,.83,1.47,1.95,1.52,3.34l-3.06,.14c-.13-.78-.41-1.34-.84-1.68-.43-.34-1.07-.51-1.94-.51s-1.59,.18-2.09,.55c-.32,.24-.49,.55-.49,.94,0,.36,.15,.67,.45,.92,.39,.32,1.32,.66,2.81,1.01,1.49,.35,2.59,.71,3.31,1.09,.72,.38,1.27,.89,1.68,1.54,.4,.65,.6,1.46,.6,2.42,0,.87-.24,1.68-.72,2.44-.48,.76-1.16,1.32-2.05,1.69-.88,.37-1.98,.55-3.3,.55-1.92,0-3.39-.45-4.42-1.33-1.03-.88-1.64-2.18-1.84-3.87"/><path class="cls-1" d="M365.02,202.17l2.97,.94c-.46,1.66-1.21,2.88-2.27,3.69-1.06,.81-2.4,1.21-4.03,1.21-2.01,0-3.67-.69-4.96-2.07-1.3-1.37-1.94-3.25-1.94-5.64,0-2.52,.65-4.48,1.96-5.88,1.3-1.4,3.01-2.09,5.14-2.09,1.85,0,3.36,.55,4.52,1.64,.69,.65,1.21,1.58,1.55,2.79l-3.03,.73c-.18-.79-.55-1.41-1.12-1.86-.57-.45-1.26-.68-2.07-.68-1.12,0-2.04,.4-2.74,1.21-.7,.81-1.05,2.12-1.05,3.92,0,1.91,.34,3.28,1.04,4.1,.69,.81,1.58,1.22,2.69,1.22,.81,0,1.52-.26,2.1-.78,.59-.51,1.01-1.33,1.26-2.44"/></g><rect class="cls-1" x="372.41" y="192.58" width="3.06" height="15.16"/><polygon class="cls-1" points="381.44 207.74 381.44 192.58 392.68 192.58 392.68 195.14 384.5 195.14 384.5 198.5 392.11 198.5 392.11 201.06 384.5 201.06 384.5 205.19 392.97 205.19 392.97 207.74 381.44 207.74"/><polygon class="cls-1" points="398.95 207.74 398.95 192.58 401.93 192.58 408.13 202.7 408.13 192.58 410.98 192.58 410.98 207.74 407.91 207.74 401.79 197.85 401.79 207.74 398.95 207.74"/><g class="cls-16"><path class="cls-1" d="M426.36,202.17l2.97,.94c-.46,1.66-1.21,2.88-2.27,3.69-1.06,.81-2.4,1.21-4.03,1.21-2.01,0-3.67-.69-4.96-2.07-1.29-1.37-1.94-3.25-1.94-5.64,0-2.52,.65-4.48,1.96-5.88,1.3-1.4,3.02-2.09,5.14-2.09,1.86,0,3.36,.55,4.52,1.64,.69,.65,1.21,1.58,1.55,2.79l-3.03,.73c-.18-.79-.55-1.41-1.12-1.86-.57-.45-1.26-.68-2.07-.68-1.12,0-2.04,.4-2.73,1.21-.7,.81-1.05,2.12-1.05,3.92,0,1.91,.34,3.28,1.04,4.1,.69,.81,1.58,1.22,2.69,1.22,.81,0,1.52-.26,2.1-.78,.59-.51,1.01-1.33,1.26-2.44"/></g><polygon class="cls-1" points="434.57 207.74 434.57 192.58 445.81 192.58 445.81 195.14 437.63 195.14 437.63 198.5 445.24 198.5 445.24 201.06 437.63 201.06 437.63 205.19 446.1 205.19 446.1 207.74 434.57 207.74"/><polygon class="cls-1" points="459.55 207.74 459.55 192.58 469.94 192.58 469.94 195.14 462.61 195.14 462.61 198.73 468.94 198.73 468.94 201.3 462.61 201.3 462.61 207.74 459.55 207.74"/><rect class="cls-1" x="474.66" y="192.58" width="3.06" height="15.16"/><g class="cls-3"><path class="cls-1" d="M493.4,202.17l2.97,.94c-.46,1.66-1.21,2.88-2.27,3.69-1.06,.81-2.4,1.21-4.03,1.21-2.01,0-3.67-.69-4.96-2.07-1.3-1.37-1.94-3.25-1.94-5.64,0-2.52,.65-4.48,1.96-5.88,1.3-1.4,3.01-2.09,5.14-2.09,1.86,0,3.36,.55,4.52,1.64,.69,.65,1.21,1.58,1.55,2.79l-3.03,.73c-.18-.79-.55-1.41-1.12-1.86-.57-.45-1.26-.68-2.07-.68-1.12,0-2.04,.4-2.74,1.21-.7,.81-1.05,2.12-1.05,3.92,0,1.91,.34,3.28,1.04,4.1,.69,.81,1.58,1.22,2.69,1.22,.81,0,1.52-.26,2.1-.78,.59-.51,1.01-1.33,1.26-2.44"/></g><polygon class="cls-1" points="504.29 207.74 504.29 195.14 499.79 195.14 499.79 192.58 511.84 192.58 511.84 195.14 507.35 195.14 507.35 207.74 504.29 207.74"/><rect class="cls-1" x="516.35" y="192.58" width="3.06" height="15.16"/><g class="cls-5"><path class="cls-1" d="M527.91,200.15c0,1.71,.39,3.02,1.19,3.9,.79,.89,1.8,1.33,3.02,1.33s2.22-.44,3.01-1.32c.78-.88,1.18-2.2,1.18-3.95,0-1.74-.38-3.04-1.14-3.89-.76-.86-1.77-1.28-3.04-1.28-1.26,0-2.28,.43-3.05,1.3-.77,.87-1.16,2.17-1.16,3.92m-3.16,.1c0-1.55,.23-2.84,.69-3.89,.35-.77,.82-1.46,1.41-2.08,.6-.61,1.25-1.07,1.96-1.37,.94-.39,2.03-.6,3.27-.6,2.23,0,4.02,.69,5.36,2.08,1.34,1.39,2.01,3.32,2.01,5.78,0,2.45-.67,4.36-2,5.75-1.33,1.38-3.11,2.07-5.34,2.07-2.25,0-4.05-.69-5.38-2.07-1.33-1.38-2-3.27-2-5.68"/></g><polygon class="cls-1" points="544.97 207.74 544.97 192.58 547.95 192.58 554.16 202.7 554.16 192.58 557 192.58 557 207.74 553.93 207.74 547.81 197.85 547.81 207.74 544.97 207.74"/><g class="cls-15"><path class="cls-1" d="M583.52,202.17l2.97,.94c-.46,1.66-1.21,2.88-2.27,3.69-1.06,.81-2.4,1.21-4.03,1.21-2.01,0-3.67-.69-4.96-2.07-1.3-1.37-1.94-3.25-1.94-5.64,0-2.52,.65-4.48,1.96-5.88,1.3-1.4,3.01-2.09,5.14-2.09,1.86,0,3.36,.55,4.52,1.64,.69,.65,1.21,1.58,1.55,2.79l-3.03,.73c-.18-.79-.55-1.41-1.12-1.86-.57-.45-1.26-.68-2.07-.68-1.12,0-2.04,.4-2.74,1.21-.7,.81-1.05,2.12-1.05,3.92,0,1.91,.34,3.28,1.04,4.1,.69,.81,1.58,1.22,2.69,1.22,.81,0,1.52-.26,2.1-.78,.59-.51,1.01-1.33,1.26-2.44"/><path class="cls-1" d="M594.99,200.15c0,1.71,.39,3.02,1.19,3.9,.79,.89,1.8,1.33,3.02,1.33,1.22,0,2.22-.44,3.01-1.32,.78-.88,1.18-2.2,1.18-3.95,0-1.74-.38-3.04-1.14-3.89-.76-.86-1.77-1.28-3.04-1.28s-2.28,.43-3.05,1.3c-.77,.87-1.16,2.17-1.16,3.92m-3.16,.1c0-1.55,.23-2.84,.69-3.89,.35-.77,.82-1.46,1.41-2.08,.6-.61,1.25-1.07,1.96-1.37,.94-.39,2.03-.6,3.27-.6,2.23,0,4.02,.69,5.36,2.08,1.34,1.39,2.01,3.32,2.01,5.78s-.66,4.36-2,5.75c-1.33,1.38-3.11,2.07-5.34,2.07-2.25,0-4.05-.69-5.38-2.07-1.33-1.38-2-3.27-2-5.68"/></g><polygon class="cls-1" points="612.05 207.74 612.05 192.58 615.03 192.58 621.24 202.7 621.24 192.58 624.08 192.58 624.08 207.74 621.01 207.74 614.9 197.85 614.9 207.74 612.05 207.74"/><polygon class="cls-1" points="635.09 207.74 629.67 192.58 632.99 192.58 636.83 203.8 640.55 192.58 643.79 192.58 638.36 207.74 635.09 207.74"/><polygon class="cls-1" points="648.81 207.74 648.81 192.58 660.05 192.58 660.05 195.14 651.87 195.14 651.87 198.5 659.48 198.5 659.48 201.06 651.87 201.06 651.87 205.19 660.34 205.19 660.34 207.74 648.81 207.74"/><polygon class="cls-1" points="666.32 207.74 666.32 192.58 669.29 192.58 675.5 202.7 675.5 192.58 678.35 192.58 678.35 207.74 675.27 207.74 669.16 197.85 669.16 207.74 666.32 207.74"/><polygon class="cls-1" points="688.17 207.74 688.17 195.14 683.67 195.14 683.67 192.58 695.72 192.58 695.72 195.14 691.23 195.14 691.23 207.74 688.17 207.74"/><rect class="cls-1" x="700.96" y="192.58" width="3.06" height="15.16"/><g class="cls-10"><path class="cls-1" d="M712.52,200.15c0,1.71,.39,3.02,1.19,3.9,.79,.89,1.8,1.33,3.02,1.33s2.22-.44,3.01-1.32c.78-.88,1.18-2.2,1.18-3.95,0-1.74-.38-3.04-1.14-3.89-.76-.86-1.77-1.28-3.04-1.28-1.26,0-2.28,.43-3.05,1.3-.77,.87-1.16,2.17-1.16,3.92m-3.16,.1c0-1.55,.23-2.84,.69-3.89,.35-.77,.82-1.46,1.41-2.08,.6-.61,1.25-1.07,1.96-1.37,.94-.39,2.03-.6,3.27-.6,2.23,0,4.02,.69,5.36,2.08,1.34,1.39,2.01,3.32,2.01,5.78s-.66,4.36-2,5.75c-1.33,1.38-3.11,2.07-5.34,2.07-2.25,0-4.05-.69-5.38-2.07-1.33-1.38-2-3.27-2-5.68"/></g><polygon class="cls-1" points="728.85 207.74 728.85 192.58 731.83 192.58 738.04 202.7 738.04 192.58 740.88 192.58 740.88 207.74 737.81 207.74 731.7 197.85 731.7 207.74 728.85 207.74"/><g class="cls-17"><path class="cls-1" d="M121.63,87.02c-10.97,0-17.77,8.44-17.77,18.53,0,10.84,7.31,18.28,17.77,18.28,10.46,0,17.77-7.44,17.77-18.28,0-10.09-6.8-18.53-17.77-18.53"/><path class="cls-1" d="M727.71,152.35h-32.87s-30.38-49.76-30.38-49.76h-1.01c1.14,6.59,2.06,12.53,2.06,18.83v30.92s-32.93,0-32.93,0V57.23s33.14,0,33.14,0l31.01,52.68h1c-1.38-8.05-2.95-16.08-2.95-24.15v-28.53s32.93,0,32.93,0v95.12Zm-154.63,1.47c-28.99,0-52.56-18.27-52.56-48.78,0-29.87,23.7-49.28,52.56-49.28,28.87,0,52.56,19.41,52.56,49.28,0,30.5-23.57,48.78-52.56,48.78m-76.38-30.5c7.94,0,14.24-3.4,19.79-8.83l-1.01,35.55c-5.54,2.64-18.4,3.78-24.58,3.78-27.1,0-48.27-21.05-48.27-48.15,0-27.72,21.81-49.91,49.66-49.91,7.81,0,15.88,1.39,23.19,3.91l1.01,36.18c-5.54-5.17-12.48-9.58-20.29-9.58-10.34,0-18.78,8.19-18.78,18.52,0,10.46,8.95,18.53,19.29,18.53m-110.67,30.5c-7.89,0-15.37-1.36-22.08-3.94,13.42-1.19,32.28-6.26,42.76-24.17,10.61-18.12-.73-40.77-10.19-44.41-9.47-3.64-29.12-4.37-32.03,15.29-1.94,13.04,12.37,14.56,12.37,14.56,0,0-11.65-13.83,.73-16.74,12.38-2.91,13.83,19.65,2.19,24.75-22.5,9.84-34.95,5.82-41.5-.73-1.54-1.55-3.05-4.11-4.44-7.11-.23-2.03-.36-4.12-.36-6.27,0-29.87,23.7-49.28,52.56-49.28,28.87,0,52.56,19.41,52.56,49.28,0,30.5-23.57,48.78-52.56,48.78m-53.45-65.67l-19.02-.89v65.08s-34.39,0-34.39,0V87.27s-19.03,.89-19.03,.89v-30.93s72.44,0,72.44,0v30.93Zm-100.29,35.16c7.94,0,14.24-3.4,19.78-8.83l-1,35.55c-5.55,2.64-18.41,3.78-24.58,3.78-27.1,0-48.28-21.05-48.28-48.15,0-27.72,21.81-49.91,49.67-49.91,7.81,0,15.88,1.39,23.19,3.91l1,36.18c-5.55-5.17-12.48-9.58-20.29-9.58-10.33,0-18.78,8.19-18.78,18.52,0,10.46,8.95,18.53,19.29,18.53m-110.67,30.5c-28.99,0-52.56-18.27-52.56-48.78s23.7-49.28,52.56-49.28c28.87,0,52.56,19.41,52.56,49.28,0,30.5-23.57,48.78-52.56,48.78M727.87,41.86h-33.02c-6.71,0-12.4,4.55-14.35,10.6l-1.77-3.09c-2.71-4.61-7.65-7.51-13-7.51h-33.15c-7.82,0-14.25,6.12-15,13.75-11.72-9.5-27.15-15.01-44.49-15.01-16.77,0-31.75,5.28-43.32,14.21-1.47-4.35-4.88-7.87-9.37-9.41-8.98-3.1-18.7-4.72-28.11-4.72-21.34,0-39.95,9.87-51.68,25.39-12.1-15.62-31.67-25.38-54.58-25.38-14.9,0-28.39,3.97-39.33,11.16-2.14-5.73-7.64-9.98-14.11-9.98h-79.62c-1.77,0-3.47,.49-5.06,1.05-6.59-1.57-13.38-2.32-20.02-2.32-21.33,0-39.95,9.9-51.68,25.43-12.11-15.62-31.67-25.37-54.58-25.37-38.56,0-67.64,27.68-67.64,64.37,0,37,28.44,63.86,67.64,63.86,23.08,0,42.43-9.31,54.44-24.53,11.48,15,29.63,24.53,50.43,24.53,.2,0,20.19-.06,31.07-5.25,3.11-1.49,5.55-3.79,7.03-6.78,1.88,6.18,7.63,10.84,14.42,10.84h34.54c8.33,0,15.37-7.08,15.37-15.4v-12.01c11.71,17.61,32.17,28.6,57.25,28.6,23.08,0,42.36-9.31,54.37-24.53,11.48,15,29.59,24.53,50.39,24.53,.2,0,20.18-.06,31.06-5.25,3.64-1.73,6.35-4.82,7.67-8.5,11.5,8.71,26.45,13.75,43.42,13.75,17.53,0,32.91-5.21,44.55-14.46,.97,7.39,7.28,13.28,14.93,13.28h33.02c6.74,0,12.44-4.58,14.38-10.68l1.99,3.35c2.74,4.5,7.62,7.32,12.88,7.32h33.02c8.33,0,15.21-7.08,15.21-15.4V57.27c0-8.33-6.88-15.41-15.21-15.41"/><path class="cls-1" d="M573.08,87.02c-10.96,0-17.77,8.44-17.77,18.53,0,10.84,7.31,18.28,17.77,18.28,10.46,0,17.77-7.44,17.77-18.28,0-10.09-6.81-18.53-17.77-18.53"/></g></g></g></svg>